<?xml version="1.0" encoding="utf-8"?>
<!-- Generator: Adobe Illustrator 16.0.0, SVG Export Plug-In . SVG Version: 6.00 Build 0)  -->
<!DOCTYPE svg PUBLIC "-//W3C//DTD SVG 1.1//EN" "http://www.w3.org/Graphics/SVG/1.1/DTD/svg11.dtd">
<svg version="1.1" xmlns="http://www.w3.org/2000/svg" xmlns:xlink="http://www.w3.org/1999/xlink" x="0px" y="0px" width="500px"
	 height="500px" viewBox="0 0 500 500" enable-background="new 0 0 500 500" xml:space="preserve">
<g id="Layer_66">
</g>
<g id="Layer_65">
	<path opacity="0.1" fill="#D1D9E8" d="M304.961,100.588h8.156c3.119,0,5.647-2.528,5.647-5.647c0-3.119-2.528-5.647-5.647-5.647
		h-24.47c-3.119,0-5.647-2.528-5.647-5.647c0-3.119,2.528-5.647,5.647-5.647h52.706c3.118,0,5.646,2.528,5.646,5.647
		c0,3.119-2.528,5.647-5.646,5.647h-3.766c0.106,0,0.21,0.01,0.314,0.016c-2.973,0.164-5.334,2.618-5.334,5.631
		c0,3.013,2.361,5.468,5.334,5.631c-0.104,0.006-0.208,0.016-0.314,0.016h3.766c3.118,0,5.646,2.528,5.646,5.647
		c0,3.119-2.528,5.647-5.646,5.647h-36.393c-3.119,0-5.647-2.528-5.647-5.647C299.313,103.116,301.842,100.588,304.961,100.588z"/>
</g>
<g id="Layer_64">
	<path opacity="0.1" fill="#D1D9E8" d="M191.039,356.412h-1.882c-3.119,0-5.647,2.527-5.647,5.646s2.528,5.646,5.647,5.646h26.98
		c3.118,0,5.646,2.529,5.646,5.647c0,3.119-2.528,5.647-5.646,5.647h-61.49c-3.119,0-5.647-2.528-5.647-5.647
		c0-3.118,2.528-5.647,5.647-5.647h3.765c-0.106,0-0.21-0.01-0.314-0.016c2.973-0.163,5.334-2.618,5.334-5.631
		s-2.361-5.468-5.334-5.631c0.104-0.006,0.208-0.016,0.314-0.016h-3.765c-3.119,0-5.647-2.529-5.647-5.647
		c0-3.119,2.528-5.647,5.647-5.647h36.392c3.119,0,5.647,2.528,5.647,5.647C196.687,353.883,194.158,356.412,191.039,356.412z"/>
</g>
<g id="Layer_63">
	<path opacity="0.7" fill="#202935" d="M190.947,389.758H191l-0.062-0.027c-0.458-1.527-3.855-10.852-18.829-10.852
		c-1.799,0-11.149,0-11.149,0V368h-13.031h-41.553h-17.52l-8.896,4c-5.089,0-9.234,2.771-11.614,6.879
		c2.38,4.108,6.525,6.879,11.614,6.879l8.896,4h0.104v0.19h20.058l5.274,43.833h11.917l14.473-43.833H191
		C191,389.948,190.982,389.877,190.947,389.758z"/>
</g>
<g id="Layer_62">
	<path opacity="0.7" fill="#202935" d="M389.96,410h-99.943v8h15.935c6.845,11.944,19.704,20,34.457,20s27.612-8.056,34.457-20
		h15.095V410z"/>
</g>
<g id="Layer_61">
	<path opacity="0.7" fill="#202935" d="M192,95c-8.897,0-48.938,0-69,0c-6.076,0-11,4.923-11,11v6h120v-6C232,106,222,95,192,95z"/>
</g>
<g id="Layer_60">
	<path opacity="0.7" fill="#202935" d="M436,121h-11v2.395l-21.895-7.298H332V132h-0.108v-13L320,122v10l11.892,3v17h-2
		c-1.104,0-2,0.896-2,2s0.896,2,2,2h22c1.104,0,2-0.896,2-2s-0.896-2-2-2h-0.818l15.272-14h53.187l16.428-10.952L435.814,127H436
		V121z"/>
</g>
<g id="Layer_59">
	<polygon fill="#FFFFFF" points="403.105,110.097 332,110.097 332,132 419.532,132 435.96,121.048 	"/>
</g>
<g id="Layer_58">
	<rect x="338" y="365.624" fill="#715AA9" width="3.996" height="16.479"/>
</g>
<g id="Layer_57">
	<circle fill="#DB4C40" cx="339.96" cy="366" r="4"/>
</g>
<g id="Layer_56">
	<path fill="#F9B938" d="M79.96,366.052c-5.089,0-9.234,2.771-11.614,6.879c2.38,4.108,6.525,6.879,11.614,6.879
		s9.811-2.771,12.19-6.879C89.771,368.822,85.049,366.052,79.96,366.052z"/>
</g>
<g id="Layer_55">
	<path fill="#715AA9" d="M339.96,380.541c-17.645,0-32.889,9.445-41,23.431h82C372.849,389.986,357.604,380.541,339.96,380.541z"/>
</g>
<g id="Layer_54">
	<path fill="#715AA9" d="M340.408,432c-14.829,0-27.751-8.136-34.568-20.183h69.137C368.159,423.864,355.237,432,340.408,432z"/>
</g>
<g id="Layer_53">
	<path opacity="0.6" fill="#2B354A" d="M340.408,432c-14.829,0-27.751-8.136-34.568-20.183h69.137
		C368.159,423.864,355.237,432,340.408,432z"/>
</g>
<g id="Layer_52">
	<rect x="290.017" y="404" fill="#F9B938" width="99.943" height="8"/>
</g>
<g id="Layer_51">
	<rect x="290.017" y="404" opacity="0.3" fill="#FFFFFF" width="99.943" height="4"/>
</g>
<g id="Layer_50">
	<path fill="#FFFFFF" d="M191,383.81l-0.062-0.027c-0.458-1.527-3.855-10.852-18.829-10.852c-1.799,0-11.149,0-11.149,0v-10.879
		H88.856v21.758h0.104V384H191c0,0-0.018-0.071-0.053-0.19H191z"/>
</g>
<g id="Layer_49">
	<polygon fill="#DB4C40" points="79,379.81 88.856,383.81 88.856,362.052 79,366.052 	"/>
</g>
<g id="Layer_48">
	<path fill="#FFFFFF" d="M106.171,352.021c-2.249-5.364-7.498-8.854-13.314-8.854v18.885h17.52L106.171,352.021z"/>
</g>
<g id="Layer_47">
	<path fill="#A7AAAD" d="M145.544,373c-10.577,0-27.029,0-56.544,0v11h83.021C161.932,381.582,152.919,377.796,145.544,373z"/>
</g>
<g id="Layer_46">
	<polygon fill="#FFFFFF" points="126.209,427.833 114.292,427.833 106.376,362.052 147.929,362.052 	"/>
</g>
<g id="Layer_45">
	<path fill="#99D8FF" d="M172.109,372.931c0-6.008-4.87-10.879-10.879-10.879H158v10.879H172.109z"/>
</g>
<g id="Layer_44">
	<rect x="89" y="343.167" fill="#DB4C40" width="3.96" height="18.833"/>
</g>
<g id="Layer_43">
	<polygon fill="#D1D9E8" points="443.025,438.804 444.652,441.779 447.629,443.407 444.652,445.035 443.025,448.011 
		441.398,445.035 438.422,443.407 441.398,441.779 	"/>
</g>
<g id="Layer_42">
	<polygon fill="#D1D9E8" points="72.949,443.407 74.576,446.383 77.553,448.011 74.576,449.639 72.949,452.614 71.322,449.639 
		68.346,448.011 71.322,446.383 	"/>
</g>
<g id="Layer_41">
	<polygon fill="#D1D9E8" points="52.944,302.559 54.571,305.534 57.548,307.162 54.571,308.79 52.944,311.766 51.317,308.79 
		48.341,307.162 51.317,305.534 	"/>
</g>
<g id="Layer_40">
	<polygon fill="#D1D9E8" points="266.356,124.435 267.983,127.411 270.96,129.039 267.983,130.667 266.356,133.642 264.729,130.667 
		261.753,129.039 264.729,127.411 	"/>
</g>
<g id="Layer_39">
	<g>
		<defs>
			<path id="SVGID_1_" d="M340.408,380.541c-17.216,0-32.218,9.445-40.132,23.431h80.264
				C372.626,389.986,357.624,380.541,340.408,380.541z"/>
		</defs>
		<clipPath id="SVGID_2_">
			<use xlink:href="#SVGID_1_"  overflow="visible"/>
		</clipPath>
		<path clip-path="url(#SVGID_2_)" fill="#99D8FF" d="M373.185,393h-17.575c-7.568,0-13.703-6.135-13.703-13.703h31.278V393z"/>
	</g>
</g>
<g id="Layer_38">
	<path fill="#99D8FF" d="M188,89c0,0-40.854,0-53,0c0-12.197,9.887-23,22.083-23C183.583,66,188,89,188,89z"/>
</g>
<g id="Layer_37">
	<rect x="154.04" y="64" fill="#008FF6" width="7.96" height="25"/>
</g>
<g id="Layer_36">
	<rect x="154.04" y="85" opacity="0.2" fill="#202935" width="7.96" height="4"/>
</g>
<g id="Layer_35">
	<rect x="112" y="100" fill="#F9B938" width="120" height="6"/>
</g>
<g id="Layer_34">
	<path fill="#008FF6" d="M192,89c-8.897,0-48.938,0-69,0c-6.076,0-11,4.923-11,11h120C232,100,222,89,192,89z"/>
</g>
<g id="Layer_33">
	<polygon fill="#008FF6" points="122,81 119,81 123,89 126,89 	"/>
</g>
<g id="Layer_32">
	<circle fill="#DB4C40" cx="120.5" cy="80.5" r="3.5"/>
</g>
<g id="Layer_31">
	<polygon fill="#715AA9" points="348.892,99 332,99 332,121 372.892,121 	"/>
</g>
<g id="Layer_30">
	<polygon opacity="0.6" fill="#202935" points="348.892,99 332,99 332,121 372.892,121 	"/>
</g>
<g id="Layer_29">
	<polygon fill="#715AA9" points="348.892,148 332,148 332,126 372.892,126 	"/>
</g>
<g id="Layer_28">
	<polygon opacity="0.6" fill="#202935" points="348.892,148 332,148 332,126 372.892,126 	"/>
</g>
<g id="Layer_27">
	<polygon fill="#DB4C40" points="320,116 331.892,113 331.892,129 320,126 	"/>
</g>
<g id="Layer_26">
	<g>
		<defs>
			<polygon id="SVGID_3_" points="419.532,132 331.892,132 331.892,110.097 403.105,110.097 435.96,121.048 			"/>
		</defs>
		<clipPath id="SVGID_4_">
			<use xlink:href="#SVGID_3_"  overflow="visible"/>
		</clipPath>
		<polygon clip-path="url(#SVGID_4_)" fill="#99D8FF" points="431,118 407,118 395.429,112 431,112 		"/>
		<path opacity="0.2" clip-path="url(#SVGID_4_)" fill="#202935" d="M373,121.048h-41.108V132h85.856C396,129,383,126,373,121.048z"
			/>
	</g>
</g>
<g id="Layer_25">
	<path fill="#715AA9" d="M353.892,148c0,1.104-0.896,2-2,2h-22c-1.104,0-2-0.896-2-2l0,0c0-1.104,0.896-2,2-2h22
		C352.996,146,353.892,146.896,353.892,148L353.892,148z"/>
</g>
<g id="Layer_24">
	<path fill="#715AA9" d="M353.892,99c0,1.104-0.896,2-2,2h-22c-1.104,0-2-0.896-2-2l0,0c0-1.104,0.896-2,2-2h22
		C352.996,97,353.892,97.896,353.892,99L353.892,99z"/>
</g>
<g id="Layer_23">
	<rect x="200" y="100" opacity="0.3" fill="#FFFFFF" width="7" height="6"/>
</g>
<g id="Layer_22">
	<rect x="215" y="100" opacity="0.3" fill="#FFFFFF" width="2" height="6"/>
</g>
<g id="Layer_21">
	<rect x="221" y="100" opacity="0.3" fill="#FFFFFF" width="8" height="6"/>
</g>
<g id="Layer_20">
	<polygon fill="#D1D9E8" points="425,62 422,62 422,59 420,59 420,62 417,62 417,64 420,64 420,67 422,67 422,64 425,64 	"/>
</g>
<g id="Layer_19">
	<polygon fill="#D1D9E8" points="231,435 228,435 228,432 226,432 226,435 223,435 223,437 226,437 226,440 228,440 228,437 
		231,437 	"/>
</g>
<g id="Layer_18">
	<path opacity="0.1" fill="#D1D9E8" d="M421.063,314.149c2.192,3.421,3.469,7.485,3.469,11.851c0,12.15-9.85,22-22,22
		c-0.856,0-1.7-0.055-2.531-0.149c3.91,6.103,10.746,10.149,18.531,10.149c12.15,0,22-9.85,22-22
		C440.531,324.706,432.02,315.405,421.063,314.149z"/>
</g>
<g id="Layer_17">
	<path opacity="0.1" fill="#D1D9E8" d="M78.502,112.544c-0.612-2.045-3.766-2.748-7.959-2.538c-3.199-4.099-8.69-6.044-13.972-4.462
		c-5.282,1.583-8.798,6.227-9.219,11.41c-3.616,2.13-5.864,4.451-5.252,6.497c0.613,2.045,3.767,2.748,7.959,2.539
		c3.201,4.099,8.691,6.044,13.974,4.461c5.281-1.582,8.798-6.226,9.217-11.409C76.867,116.911,79.115,114.59,78.502,112.544z
		 M44.017,122.876c-0.191-0.64,0.925-1.994,3.354-3.58c0.082,0.811,0.235,1.624,0.478,2.433c0.243,0.809,0.562,1.572,0.938,2.293
		C45.886,124.034,44.209,123.516,44.017,122.876z M73.232,116.699c-0.082-0.81-0.234-1.624-0.478-2.432
		c-0.242-0.809-0.562-1.572-0.938-2.294c2.901-0.011,4.579,0.507,4.771,1.146C76.779,113.758,75.662,115.113,73.232,116.699z"/>
</g>
<g id="Layer_16">
	<path fill="#008FF6" d="M155.748,213.748C155.748,187.585,119,177,119,177h-6v46.75h42.748V213.748z"/>
</g>
<g id="Layer_15">
	<rect x="113" y="177" opacity="0.2" fill="#FFFFFF" width="6" height="46.75"/>
</g>
<g id="Layer_14">
	<path fill="#DB4C40" d="M122,279h282c6.075,0,11-4.925,11-11H122V279z"/>
</g>
<g id="Layer_13">
	<path fill="#EAEAEA" d="M113,220v48h302c-48.271-46.239-115.25-74.988-186-74.988S113,220,113,220z"/>
</g>
<g id="Layer_12">
	<path opacity="0.6" fill="#FFFFFF" d="M173.9,198.603C220.069,210.724,261.274,235.08,293.85,268H415
		c-48.271-46.239-115.25-74.988-186-74.988C208.279,193.012,189.751,195.329,173.9,198.603z"/>
</g>
<g id="Layer_11">
	<g>
		<defs>
			<path id="SVGID_5_" d="M229,193.012V268h186C366.729,221.761,301.062,193.274,229,193.012z"/>
		</defs>
		<clipPath id="SVGID_6_">
			<use xlink:href="#SVGID_5_"  overflow="visible"/>
		</clipPath>
		<path clip-path="url(#SVGID_6_)" fill="#99D8FF" d="M361,228h-60c-8.837,0-16-7.164-16-16h76V228z"/>
		<path opacity="0.5" clip-path="url(#SVGID_6_)" fill="#99D8FF" d="M361,228h-60c-8.837,0-16-7.164-16-16h76V228z"/>
		<path clip-path="url(#SVGID_6_)" fill="#99D8FF" d="M370,228h-60c-8.837,0-16-7.164-16-16h76V228z"/>
	</g>
</g>
<g id="Layer_10">
	<polygon fill="#F9B938" points="92,220 85,220 85,263 92,263 113,254 113,229 	"/>
</g>
<g id="Layer_9">
	<rect x="85" y="220" opacity="0.3" fill="#FFFFFF" width="7" height="21"/>
</g>
<g id="Layer_8">
	<circle opacity="0.85" fill="#EAEAEA" cx="275" cy="251" r="4"/>
</g>
<g id="Layer_7">
	<circle opacity="0.85" fill="#EAEAEA" cx="290" cy="251" r="4"/>
</g>
<g id="Layer_6">
	<circle opacity="0.85" fill="#EAEAEA" cx="305" cy="251" r="4"/>
</g>
<g id="Layer_5">
	<polygon fill="#008FF6" points="140.048,305.129 179.497,305.129 224.056,237 140.048,237 	"/>
</g>
<g id="Layer_4">
	<polygon opacity="0.2" fill="#FFFFFF" points="218.056,237 173.497,305.129 179.497,305.129 224.056,237 	"/>
</g>
<g id="Layer_3">
	<path fill="#008FF6" d="M188.048,306c0,1.656-1.343,3-3,3H135c-1.657,0-3-1.344-3-3l0,0c0-1.656,1.343-3,3-3h50.048
		C186.705,303,188.048,304.344,188.048,306L188.048,306z"/>
</g>
<g id="Layer_2">
	<path opacity="0.2" fill="#FFFFFF" d="M188.048,306c0,1.656-1.343,3-3,3H135c-1.657,0-3-1.344-3-3l0,0c0-1.656,1.343-3,3-3h50.048
		C186.705,303,188.048,304.344,188.048,306L188.048,306z"/>
	<g>
	</g>
	<g>
	</g>
	<g>
	</g>
	<g>
	</g>
	<g>
	</g>
	<g>
	</g>
</g>
</svg>
